<?xml version="1.0" encoding="utf-8"?>
<!-- Generator: Adobe Illustrator 18.1.1, SVG Export Plug-In . SVG Version: 6.00 Build 0)  -->
<svg version="1.1" id="Layer_1" xmlns="http://www.w3.org/2000/svg" xmlns:xlink="http://www.w3.org/1999/xlink" x="0px" y="0px"
	 viewBox="0 0 97.6 97.6" enable-background="new 0 0 97.6 97.6" xml:space="preserve">
<path d="M48.8,97.6c-6.1,0-12.3-0.1-18.4,0c-2,0-3.5-0.5-4.9-2C17.8,87.7,10,79.9,2.1,72.1C0.7,70.8,0,69.4,0,67.3
	c0.1-12.4,0.1-24.8,0-37.2c0-1.9,0.6-3.2,1.9-4.5c8-7.9,15.9-15.8,23.7-23.7C27,0.6,28.3,0,30.2,0C42.6,0.1,55,0.1,67.4,0
	c1.9,0,3.2,0.5,4.6,1.8c7.9,8,15.8,15.9,23.7,23.7c1.3,1.3,2,2.6,2,4.5c-0.1,12.5-0.1,25,0,37.6c0,1.8-0.6,3-1.8,4.2
	c-8,8-16.1,16-24,24c-1.4,1.4-2.8,1.8-4.6,1.7C61.1,97.5,55,97.6,48.8,97.6z M65.7,48.7c0-6.1-0.2-12.3,0.1-18.4
	c0.2-3.7-1.3-4-4.4-4c-3.1,0-4.8,0.3-4.6,4.2c0.3,10,0,20,0.2,30c0,2.5-0.6,3.4-3.3,3.6c-9.3,0.6-12.5-2-12.7-11.3
	c-0.2-6.8-0.1-13.6-0.1-20.4c0-6.6-0.2-6.7-6.6-6c-1.4,0.1-2.2,0.5-2.2,2.1C32.3,38.7,31,49,32.7,59.2c1.5,9.4,7.1,13.7,16.6,13.8
	c4.4,0,8.7-0.7,13.1-1.5c2.8-0.5,3.3-1.8,3.3-4.3C65.5,61,65.7,54.9,65.7,48.7z"/>
<g>
</g>
<g>
</g>
<g>
</g>
<g>
</g>
<g>
</g>
<g>
</g>
<g>
</g>
<g>
</g>
<g>
</g>
<g>
</g>
<g>
</g>
<g>
</g>
<g>
</g>
<g>
</g>
<g>
</g>
</svg>
