<svg xmlns="http://www.w3.org/2000/svg" width="16" height="16">
  <path fill="gray" stroke="#FFF" stroke-width=".125" d="M8 16c7-4 7-4 7-14-3 0-4 0-7-2m0 16c-7-4-7-4-7-14 3 0 4 0 7-2" stroke-linejoin="round" stroke-linecap="round"/>
  <path fill="#FFF" d="M9.5 4.998c-1.375 0-2.5 1.125-2.5 2.5s1.125 2.5 2.5 2.5 2.5-1.125 2.5-2.5-1.125-2.5-2.5-2.5zm0 1c.834 0 1.5.666 1.5 1.5s-.666 1.5-1.5 1.5S8 8.332 8 7.498s.666-1.5 1.5-1.5z" color="#000"/>
  <path fill="#FFF" d="M8 8c0 1.375-.625 2-2 2s-2-.625-2-2V5h1v3c0 .875.125 1 1 1s1-.125 1-1V5h1z"/>
</svg>
