<?xml version="1.0" encoding="UTF-8" standalone="no"?>
<!-- Created with Inkscape (http://www.inkscape.org/) -->
<svg id="Layer_1" xmlns:rdf="http://www.w3.org/1999/02/22-rdf-syntax-ns#" xmlns="http://www.w3.org/2000/svg" viewBox="0 0 16 16" height="16px" width="16px" version="1.1" xmlns:cc="http://creativecommons.org/ns#" xmlns:dc="http://purl.org/dc/elements/1.1/">
 <g id="layer1">
  <path id="path6909" stroke-linejoin="round" d="M8,16c7-4,7-4,7-14-3,0-4,0-7-2m0,16c-7-4-7-4-7-14,3,0,4,0,7-2" fill-rule="nonzero" stroke="#FFF" stroke-linecap="round" stroke-dasharray="none" stroke-miterlimit="4" stroke-width="0.12500024" fill="#800000"/>
  <path id="path2996-3" style="color:#000000;enable-background:accumulate;" fill="#FFF" d="m9.5001,4.9981c-1.3748,0-2.5,1.1252-2.5,2.5s1.1252,2.5,2.5,2.5,2.5-1.1252,2.5-2.5-1.1252-2.5-2.5-2.5zm0,1c0.83435,0,1.5,0.66565,1.5,1.5s-0.66565,1.5-1.5,1.5-1.5-0.66565-1.5-1.5,0.66565-1.5,1.5-1.5z"/>
  <path id="path3783" fill="#FFF" stroke-width="0" stroke-miterlimit="4" d="m7.9996,8.0002c0,1.375-0.625,2-2,2s-2-0.625-2-2v-2.9998h1.0001v3c0,0.875,0.125,1,1,1s1-0.125,1-1v-3h1z"/>
 </g>
</svg>
