<?xml version="1.0" encoding="UTF-8" standalone="no"?>
<!-- Created with Inkscape (http://www.inkscape.org/) -->

<svg
   xmlns:dc="http://purl.org/dc/elements/1.1/"
   xmlns:cc="http://creativecommons.org/ns#"
   xmlns:rdf="http://www.w3.org/1999/02/22-rdf-syntax-ns#"
   xmlns:svg="http://www.w3.org/2000/svg"
   xmlns="http://www.w3.org/2000/svg"
   version="1.1"
   width="16"
   height="16"
   id="svg2">
  <defs
     id="defs4" />
  <metadata
     id="metadata7">
    <rdf:RDF>
      <cc:Work
         rdf:about="">
        <dc:format>image/svg+xml</dc:format>
        <dc:type
           rdf:resource="http://purl.org/dc/dcmitype/StillImage" />
        <dc:title></dc:title>
        <dc:description>Use gray 50% for the &quot;off&quot; color</dc:description>
        <cc:license
           rdf:resource="http://creativecommons.org/licenses/by-nc/3.0/" />
      </cc:Work>
      <cc:License
         rdf:about="http://creativecommons.org/licenses/by-nc/3.0/">
        <cc:permits
           rdf:resource="http://creativecommons.org/ns#Reproduction" />
        <cc:permits
           rdf:resource="http://creativecommons.org/ns#Distribution" />
        <cc:requires
           rdf:resource="http://creativecommons.org/ns#Notice" />
        <cc:requires
           rdf:resource="http://creativecommons.org/ns#Attribution" />
        <cc:prohibits
           rdf:resource="http://creativecommons.org/ns#CommercialUse" />
        <cc:permits
           rdf:resource="http://creativecommons.org/ns#DerivativeWorks" />
      </cc:License>
    </rdf:RDF>
  </metadata>
  <g
     transform="translate(0,-112)"
     id="layer3"
     style="display:inline">
    <g
       transform="matrix(0.6778654,0,0,0.56141828,-241.07537,-247.27712)"
       id="g5639"
       style="fill:#800000;fill-opacity:1;stroke:#ffffff;stroke-width:1.62100744;stroke-linecap:round;stroke-miterlimit:4;stroke-opacity:1;stroke-dasharray:none;display:inline" />
  </g>
  <g
     transform="translate(-17.872548,-129.32535)"
     id="layer5"
     style="display:inline">
    <g
       transform="matrix(0.12500043,0,0,0.12562955,15.695782,127.10848)"
       id="g3046">
      <g
         transform="matrix(-0.6945203,0,0,0.56109687,392.90219,-230.10412)"
         id="g6907"
         style="fill:#800000;fill-opacity:1;stroke:#ffffff;stroke-width:1.60191178;stroke-linecap:round;stroke-linejoin:round;stroke-miterlimit:4;stroke-opacity:1;stroke-dasharray:none;display:inline">
        <path
           d="M 447.83376,669.09921 C 367.20257,612.06806 367.20257,540.77912 367.9225,468.82184 c 33.8363,0.66834 45.35504,0.66834 79.91126,-27.84724 m 0,228.12461 c 80.6312,-57.03115 81.35113,-128.98843 81.35113,-200.27737 -35.27616,0.66834 -46.7949,0.66834 -81.35113,-27.84724"
           id="path6909"
           style="fill:#800000;fill-opacity:1;fill-rule:nonzero;stroke:#ffffff;stroke-width:1.60191178;stroke-linecap:round;stroke-linejoin:round;stroke-miterlimit:4;stroke-opacity:1;stroke-dasharray:none" />
      </g>
      <path
         d="m 84.872548,101.68104 c -1.726136,0.54418 -4.006062,1.12095 -6.839774,1.73029 -2.833776,0.60935 -6.112632,0.91402 -9.836581,0.91402 -3.238118,0 -5.963564,-0.59279 -8.176356,-1.77839 -2.212821,-1.1856 -3.99369,-2.863606 -5.342612,-5.034065 -1.348939,-2.170471 -2.320284,-4.729921 -2.914038,-7.678379 -0.593768,-2.948431 -0.890649,-6.219648 -0.890641,-9.81367 l 0,-29.695495 7.527831,0 0,27.662624 c 0,6.439008 0.809508,11.048406 2.42857,13.82821 1.61903,2.779823 4.344892,4.16973 8.177594,4.169722 0.808675,8e-6 1.644962,-0.03369 2.508865,-0.100879 0.863849,-0.06722 1.673373,-0.151548 2.428573,-0.252937 0.755139,-0.101397 1.443194,-0.203286 2.064161,-0.305721 0.620903,-0.102413 1.066432,-0.22086 1.336581,-0.355362 l 0,-44.645658 7.527827,0 z"
         id="path2993-3"
         style="font-size:100.21945953px;font-style:normal;font-variant:normal;font-weight:normal;font-stretch:normal;text-align:center;line-height:125%;letter-spacing:0px;word-spacing:0px;text-anchor:middle;fill:#ffffff;fill-opacity:1;stroke:#ffffff;stroke-width:2;stroke-linejoin:miter;stroke-miterlimit:4;stroke-opacity:1;stroke-dasharray:none;display:inline;font-family:Ubuntu;-inkscape-font-specification:Ubuntu" />
      <ellipse
         cx="102.12254"
         cy="81.325356"
         rx="11.999999"
         ry="12"
         transform="matrix(1.2083335,0,0,1.3333334,-28.025543,-23.108461)"
         id="path2996-3"
         style="font-size:100.21945953px;font-style:normal;font-variant:normal;font-weight:normal;font-stretch:normal;text-align:center;line-height:125%;letter-spacing:0px;word-spacing:0px;text-anchor:middle;fill:#800000;fill-opacity:1;stroke:#ffffff;stroke-width:6.30270815;stroke-miterlimit:4;stroke-opacity:1;stroke-dasharray:none;display:inline;font-family:Ubuntu;-inkscape-font-specification:Ubuntu" />
    </g>
  </g>
</svg>
