<?xml version="1.0" encoding="UTF-8" standalone="no"?>
<!-- Created with Inkscape (http://www.inkscape.org/) -->

<svg
   xmlns:dc="http://purl.org/dc/elements/1.1/"
   xmlns:cc="http://creativecommons.org/ns#"
   xmlns:rdf="http://www.w3.org/1999/02/22-rdf-syntax-ns#"
   xmlns:svg="http://www.w3.org/2000/svg"
   xmlns="http://www.w3.org/2000/svg"
   version="1.1"
   width="16"
   height="16"
   id="svg2">
  <defs
     id="defs4" />
  <metadata
     id="metadata7">
    <rdf:RDF>
      <cc:Work
         rdf:about="">
        <dc:format>image/svg+xml</dc:format>
        <dc:type
           rdf:resource="http://purl.org/dc/dcmitype/StillImage" />
        <dc:title></dc:title>
        <dc:description>Use gray 40% for the &quot;off&quot; color</dc:description>
        <cc:license
           rdf:resource="http://creativecommons.org/licenses/by-nc-sa/3.0/" />
      </cc:Work>
      <cc:License
         rdf:about="http://creativecommons.org/licenses/by-nc-sa/3.0/">
        <cc:permits
           rdf:resource="http://creativecommons.org/ns#Reproduction" />
        <cc:permits
           rdf:resource="http://creativecommons.org/ns#Distribution" />
        <cc:requires
           rdf:resource="http://creativecommons.org/ns#Notice" />
        <cc:requires
           rdf:resource="http://creativecommons.org/ns#Attribution" />
        <cc:prohibits
           rdf:resource="http://creativecommons.org/ns#CommercialUse" />
        <cc:permits
           rdf:resource="http://creativecommons.org/ns#DerivativeWorks" />
        <cc:requires
           rdf:resource="http://creativecommons.org/ns#ShareAlike" />
      </cc:License>
    </rdf:RDF>
  </metadata>
  <g
     transform="translate(0,-112)"
     id="layer3"
     style="display:inline">
    <g
       transform="matrix(0.6778654,0,0,0.56141828,-241.07537,-247.27712)"
       id="g5639"
       style="fill:#800000;fill-opacity:1;stroke:#ffffff;stroke-width:1.62100744;stroke-linecap:round;stroke-miterlimit:4;stroke-opacity:1;stroke-dasharray:none;display:inline" />
  </g>
  <g
     transform="translate(-17.872548,-129.32535)"
     id="layer5"
     style="display:inline">
    <g
       transform="matrix(-0.08681534,0,0,0.07049035,64.808725,98.200603)"
       id="g6907"
       style="fill:#999999;fill-opacity:1;stroke:#ffffff;stroke-width:1.60191178;stroke-linecap:round;stroke-linejoin:round;stroke-miterlimit:4;stroke-opacity:1;stroke-dasharray:none;display:inline">
      <path
         d="M 447.83376,669.09921 C 367.20257,612.06806 367.20257,540.77912 367.9225,468.82184 c 33.8363,0.66834 45.35504,0.66834 79.91126,-27.84724 m 0,228.12461 c 80.6312,-57.03115 81.35113,-128.98843 81.35113,-200.27737 -35.27616,0.66834 -46.7949,0.66834 -81.35113,-27.84724"
         id="path6909"
         style="fill:#999999;fill-opacity:1;fill-rule:nonzero;stroke:#ffffff;stroke-width:1.60191178;stroke-linecap:round;stroke-linejoin:round;stroke-miterlimit:4;stroke-opacity:1;stroke-dasharray:none" />
    </g>
    <path
       d="m 26.304887,139.88262 c -0.215768,0.0684 -0.500759,0.14083 -0.854975,0.21738 -0.354223,0.0765 -0.764081,0.11483 -1.229577,0.11483 -0.404766,0 -0.745448,-0.0745 -1.022048,-0.22342 -0.276603,-0.14895 -0.499213,-0.35976 -0.667828,-0.63243 -0.168618,-0.27267 -0.290037,-0.59422 -0.364256,-0.96463 -0.07422,-0.37041 -0.111332,-0.78137 -0.111331,-1.23289 l 0,-3.73063 0.940982,0 0,3.47524 c 0,0.80893 0.101189,1.38801 0.303573,1.73724 0.202379,0.34922 0.543113,0.52384 1.022202,0.52384 0.101085,0 0.205621,-0.004 0.31361,-0.0127 0.107981,-0.008 0.209172,-0.019 0.303572,-0.0318 0.09439,-0.0127 0.1804,-0.0255 0.258021,-0.0384 0.07761,-0.0129 0.133305,-0.0277 0.167073,-0.0447 l 0,-5.60881 0.940982,0 z"
       id="path2993-3"
       style="font-size:100.21945953px;font-style:normal;font-variant:normal;font-weight:normal;font-stretch:normal;text-align:center;line-height:125%;letter-spacing:0px;word-spacing:0px;text-anchor:middle;fill:#ffffff;fill-opacity:1;stroke:#ffffff;stroke-width:0.25062919;stroke-linejoin:miter;stroke-miterlimit:4;stroke-opacity:1;stroke-dasharray:none;display:inline;font-family:Ubuntu;-inkscape-font-specification:Ubuntu" />
    <ellipse
       cx="102.12254"
       cy="81.325356"
       rx="11.999999"
       ry="12"
       transform="matrix(0.15104221,0,0,0.16750608,12.192577,124.20537)"
       id="path2996-3"
       style="font-size:100.21945953px;font-style:normal;font-variant:normal;font-weight:normal;font-stretch:normal;text-align:center;line-height:125%;letter-spacing:0px;word-spacing:0px;text-anchor:middle;fill:#999999;fill-opacity:1;stroke:#ffffff;stroke-width:6.30270815;stroke-miterlimit:4;stroke-opacity:1;stroke-dasharray:none;display:inline;font-family:Ubuntu;-inkscape-font-specification:Ubuntu" />
  </g>
</svg>
