<?xml version="1.0" encoding="UTF-8"?><svg viewBox="0 0 19 19" version="1.1" xmlns="http://www.w3.org/2000/svg" xmlns:xlink="http://www.w3.org/1999/xlink"><title>ublock</title><g id="ublock" stroke="none" fill="none"><path d="M9.5,18.5 C17.5,14.0003774 17.5,14.0005257 17.5,2.7498113 C14.0715496,2.7498113 12.9284504,2.7498113 9.5,0.5 C6.07154962,2.7498113 4.92845038,2.7498113 1.5,2.7498113 C1.5,14.0005257 1.5,14.0003774 9.5,18.5 Z M9.5,16.75 C3,13.1254203 3,13.1254203 3,4.06228986 C5.78546667,4.06228986 6.71453333,4.06228986 9.5,2.25 C12.2854667,4.06228986 13.2145333,4.06228986 16,4.06228986 C16,13.1254203 16,13.1254203 9.5,16.75 Z" id="shield" fill="#000000" fill-rule="nonzero" transform="translate(9.5, 9.5002) scale(-1, 1) translate(-9.5, -9.5002)"/><rect id="bar" fill="#000000" fill-rule="evenodd" x="5" y="8.5" width="9" height="2"/></g></svg>