<svg xmlns="http://www.w3.org/2000/svg" width="16" height="16" viewBox="0 0 16 16"><path d="M8 5.50164921L8 0C11 2 12 2 15 2 15 12 15 12 8 16L8 9.49455079C8.41860278 9.81035812 8.93852826 9.9981 9.5001 9.9981 10.8749 9.9981 12.0001 8.8729 12.0001 7.4981 12.0001 6.1233 10.8749 4.9981 9.5001 4.9981L9.5001 4.9981C8.93852826 4.9981 8.41860278 5.18584188 8 5.50164921ZM8 5.50164921L8 0C5 2 4 2 1 2 1 12 1 12 8 16L8 9.49455079C7.90126547 9.42006231 7.80816785 9.33844913 7.72149021 9.25049435 7.415684 9.7602122 6.85163468 10.0002 5.9996 10.0002 4.6246 10.0002 3.9996 9.3752 3.9996 8.0002L3.9996 5.0004 4.9997 5.0004 4.9997 8.0004C4.9997 8.8754 5.1247 9.0004 5.9997 9.0004 6.8747 9.0004 6.9997 8.8754 6.9997 8.0004L6.9997 5.0004 7.9997 5.0004 7.99968328 5.50188819C7.99978885 5.50180852 7.99989442 5.50172886 8 5.50164921ZM9.5001 5.9981C10.33445 5.9981 11.0001 6.66375 11.0001 7.4981 11.0001 8.33245 10.33445 8.9981 9.5001 8.9981 8.66575 8.9981 8.0001 8.33245 8.0001 7.4981 8.0001 6.66375 8.66575 5.9981 9.5001 5.9981L9.5001 5.9981Z" fill="black"/></svg>