<?xml version="1.0" encoding="UTF-8" standalone="no"?>
<svg width="16px" height="16px" viewBox="0 0 16 16" version="1.1" xmlns="http://www.w3.org/2000/svg" xmlns:xlink="http://www.w3.org/1999/xlink">
    <!-- Generator: Sketch 41.2 (35397) - http://www.bohemiancoding.com/sketch -->
    <title>safari-icon16-off</title>
    <desc>Created with Sketch.</desc>
    <defs></defs>
    <g id="Page-2" stroke="none" stroke-width="1" fill="none" fill-rule="evenodd">
        <g id="icon16-off" transform="translate(4.000000, 4.000000)" fill="#808080">
            <path d="M3.72149021,5.25049435 C3.415684,5.7602122 2.85163468,6.0002 1.9996,6.0002 C0.6246,6.0002 -0.0004,5.3752 -0.0004,4.0002 L-0.0004,1.0004 L0.9997,1.0004 L0.9997,4.0004 C0.9997,4.8754 1.1247,5.0004 1.9997,5.0004 C2.8747,5.0004 2.9997,4.8754 2.9997,4.0004 L2.9997,1.0004 L3.9997,1.0004 L3.99968328,1.50188819 C4.41834051,1.1859366 4.93838662,0.9981 5.5001,0.9981 L5.5001,0.9981 C6.8749,0.9981 8.0001,2.1233 8.0001,3.4981 C8.0001,4.8729 6.8749,5.9981 5.5001,5.9981 C4.80607209,5.9981 4.1756533,5.71134926 3.72149021,5.25049435 Z M5.5001,1.9981 C6.33445,1.9981 7.0001,2.66375 7.0001,3.4981 C7.0001,4.33245 6.33445,4.9981 5.5001,4.9981 C4.66575,4.9981 4.0001,4.33245 4.0001,3.4981 C4.0001,2.66375 4.66575,1.9981 5.5001,1.9981 L5.5001,1.9981 Z" id="Combined-Shape"></path>
        </g>
    </g>
</svg>