<?xml version="1.0" encoding="utf-8"?>
<!-- Generator: Adobe Illustrator 18.1.1, SVG Export Plug-In . SVG Version: 6.00 Build 0)  -->
<svg version="1.1" id="Layer_1" xmlns="http://www.w3.org/2000/svg" xmlns:xlink="http://www.w3.org/1999/xlink" x="0px" y="0px"
	 viewBox="-128 122 256 256" enable-background="new -128 122 256 256" xml:space="preserve">
<path d="M-0.1,378c-16,0-32.2-0.3-48.2,0c-5.2,0-9.2-1.3-12.8-5.2c-20.2-20.7-40.6-41.2-61.3-61.6c-3.7-3.4-5.5-7.1-5.5-12.6
	c0.3-32.5,0.3-65,0-97.6c0-5,1.6-8.4,5-11.8c21-20.7,41.7-41.4,62.1-62.2c3.7-3.4,7.1-5,12.1-5c32.5,0.3,65,0.3,97.5,0
	c5,0,8.4,1.3,12.1,4.7c20.7,21,41.4,41.7,62.1,62.2c3.4,3.4,5.2,6.8,5.2,11.8c-0.3,32.8-0.3,65.6,0,98.6c0,4.7-1.6,7.9-4.7,11
	c-21,21-42.2,42-62.9,63c-3.7,3.7-7.3,4.7-12.1,4.5C32.1,377.7,16.1,378-0.1,378z M44.2,249.7c0-16-0.5-32.3,0.3-48.3
	c0.5-9.7-3.4-10.5-11.5-10.5s-12.6,0.8-12.1,11c0.8,26.2,0,52.5,0.5,78.7c0,6.6-1.6,8.9-8.6,9.4c-24.4,1.6-32.8-5.2-33.3-29.6
	c-0.5-17.8-0.3-35.7-0.3-53.5c0-17.3-0.5-17.6-17.3-15.7c-3.7,0.3-5.8,1.3-5.8,5.5c0.5,26.8-2.9,53.8,1.6,80.5
	c3.9,24.7,18.6,35.9,43.5,36.2c11.5,0,22.8-1.8,34.3-3.9c7.3-1.3,8.6-4.7,8.6-11.3C43.6,282,44.2,266,44.2,249.7z"/>
</svg>
