<?xml version="1.0" encoding="UTF-8" standalone="no"?>
<svg width="16px" height="16px" viewBox="0 0 16 16" version="1.1" xmlns="http://www.w3.org/2000/svg" xmlns:xlink="http://www.w3.org/1999/xlink">
    <!-- Generator: Sketch 41.2 (35397) - http://www.bohemiancoding.com/sketch -->
    <title>safari-icon16</title>
    <desc>Created with Sketch.</desc>
    <defs></defs>
    <g id="Page-1" stroke="none" stroke-width="1" fill="none" fill-rule="evenodd">
        <g id="icon16" transform="translate(1.000000, 0.000000)" fill="#808080">
            <path d="M7,5.50164921 L7,0 C10,2 11,2 14,2 C14,12 14,12 7,16 L7,9.49455079 C7.41860278,9.81035812 7.93852826,9.9981 8.5001,9.9981 C9.8749,9.9981 11.0001,8.8729 11.0001,7.4981 C11.0001,6.1233 9.8749,4.9981 8.5001,4.9981 L8.5001,4.9981 C7.93852826,4.9981 7.41860278,5.18584188 7,5.50164921 Z M7,5.50164921 L7,0 C4,2 3,2 0,2 C0,12 0,12 7,16 L7,9.49455079 C6.90126547,9.42006231 6.80816785,9.33844913 6.72149021,9.25049435 C6.415684,9.7602122 5.85163468,10.0002 4.9996,10.0002 C3.6246,10.0002 2.9996,9.3752 2.9996,8.0002 L2.9996,5.0004 L3.9997,5.0004 L3.9997,8.0004 C3.9997,8.8754 4.1247,9.0004 4.9997,9.0004 C5.8747,9.0004 5.9997,8.8754 5.9997,8.0004 L5.9997,5.0004 L6.9997,5.0004 L6.99968328,5.50188819 C6.99978885,5.50180852 6.99989442,5.50172886 7,5.50164921 Z M8.5001,5.9981 C9.33445,5.9981 10.0001,6.66375 10.0001,7.4981 C10.0001,8.33245 9.33445,8.9981 8.5001,8.9981 C7.66575,8.9981 7.0001,8.33245 7.0001,7.4981 C7.0001,6.66375 7.66575,5.9981 8.5001,5.9981 L8.5001,5.9981 Z" id="Combined-Shape"></path>
        </g>
    </g>
</svg>