<svg xmlns="http://www.w3.org/2000/svg" width="16" height="16" viewBox="0 0 16 16"><path d="M7.72149021 9.25049435C7.415684000000001 9.7602122 6.85163468 10.0002 5.9996 10.0002 4.6246 10.0002 3.9996 9.3752 3.9996 8.0002L3.9996 5.0004 4.9997 5.0004 4.9997 8.000399999999999C4.9997 8.875399999999999 5.1247 9.000399999999999 5.9997 9.000399999999999 6.8747 9.000399999999999 6.9997 8.875399999999999 6.9997 8.000399999999999L6.9997 5.0004 7.9997 5.0004 7.99968328 5.50188819C8.41834051 5.1859366 8.93838662 4.9981 9.5001 4.9981L9.5001 4.9981C10.8749 4.9981 12.0001 6.1233 12.0001 7.4981 12.0001 8.8729 10.8749 9.9981 9.5001 9.9981 8.80607209 9.9981 8.1756533 9.71134926 7.72149021 9.25049435ZM9.5001 5.9981C10.33445 5.9981 11.0001 6.66375 11.0001 7.4981 11.0001 8.33245 10.33445 8.9981 9.5001 8.9981 8.66575 8.9981 8.0001 8.33245 8.0001 7.4981 8.0001 6.66375 8.66575 5.9981 9.5001 5.9981L9.5001 5.9981Z" fill="black" fill-rule="evenodd"/></svg>