<svg xmlns="http://www.w3.org/2000/svg" width="16px" height="16px" viewBox="0 0 97.6 97.6">
<!-- Generator: Adobe Illustrator 18.1.1, SVG Export Plug-In . SVG Version: 6.00 Build 0)  -->
<path d="M65.7,30.3c-0.3,6.1-0.1,12.3-0.1,18.4S65.6,61,65.7,67.1c0.1,2.5-0.5,3.8-3.3,4.3c-4.3,0.8-8.7,1.5-13.1,1.5 c-9.5,0-15.1-4.4-16.6-13.8C31,49,32.3,38.7,32,28.4c0-1.6,0.8-1.9,2.2-2c6.5-0.6,6.6-0.5,6.6,6c0,6.8-0.1,13.6,0.1,20.4 c0.2,9.4,3.4,12,12.7,11.3c2.7-0.2,3.3-1.1,3.3-3.6c-0.1-10,0.2-20-0.2-30c-0.1-3.9,1.5-4.2,4.7-4.2C64.4,26.3,65.9,26.7,65.7,30.3z"/>
</svg>
