<svg width="128" height="128" viewBox="0 0 128 128" fill="none" xmlns="http://www.w3.org/2000/svg">
<path d="M63.9998 9.05258C66.1283 10.6855 69.4841 13.1508 73.3611 15.5907C78.133 18.5937 83.9986 21.7581 89.4627 23.1336C93.9505 24.2634 99.3642 24.4879 104.047 24.4032C107.433 24.3419 110.582 24.1134 112.96 23.8914V62.6825C112.96 82.5589 101.663 100.708 83.8289 109.483L63.9998 119.24L44.1717 109.483C26.3373 100.708 15.0399 82.559 15.0399 62.6825V23.8914C17.4173 24.1134 20.567 24.3419 23.9529 24.4032C28.6355 24.4879 34.05 24.2634 38.5379 23.1336C44.002 21.758 49.8677 18.5936 54.6395 15.5907C58.5163 13.1509 61.8714 10.6855 63.9998 9.05258Z" stroke="#696969" stroke-width="7.68"/>
<rect x="32.96" y="57.6" width="61.44" height="12.8" fill="#696969"/>
</svg>
