<svg width="400" height="400" viewBox="0 0 400 400" fill="none" xmlns="http://www.w3.org/2000/svg">
<path d="M197.708 23.7676C199.051 22.7072 200.949 22.7072 202.292 23.7676C207.746 28.0758 219.566 37.0957 233.691 45.9639C247.791 54.8153 264.306 63.5921 279.134 67.3203C291.281 70.3745 306.43 71.0809 320.204 70.8418C334.002 70.6023 346.528 69.4113 353.478 68.626C355.621 68.3838 357.5 70.0571 357.5 72.1914V191.871C357.5 258.017 319.889 318.408 260.525 347.583L201.544 376.57C200.57 377.049 199.43 377.049 198.456 376.57L139.475 347.583C80.1107 318.408 42.5 258.017 42.5 191.871V72.1914C42.5 70.0571 44.3792 68.3838 46.5225 68.626C53.4721 69.4113 65.9985 70.6023 79.7959 70.8418C93.5698 71.0809 108.719 70.3745 120.866 67.3203C135.694 63.5921 152.209 54.8153 166.309 45.9639C180.434 37.0957 192.254 28.0758 197.708 23.7676Z" fill="#808080" stroke="white" stroke-width="3"/>
<rect x="107" y="181" width="185" height="38" fill="white"/>
</svg>
