<?xml version="1.0" encoding="UTF-8"?>
<svg width="16px" height="16px" viewBox="0 0 16 16" version="1.1" xmlns="http://www.w3.org/2000/svg" xmlns:xlink="http://www.w3.org/1999/xlink">
    <!-- Generator: Sketch 41.2 (35397) - http://www.bohemiancoding.com/sketch -->
    <title>adn_active</title>
    <desc>Created with Sketch.</desc>
    <defs></defs>
    <g id="Symbols" stroke="none" stroke-width="1" fill="none" fill-rule="evenodd">
        <g id="adn_active" fill="#A01FF0">
            <path d="M11.0035937,2.00146535 C13.9335203,3.19699991 16,6.08938468 16,9.46761874 C16,11.0295779 15.5582353,12.487674 14.7936155,13.7222096 C12.9042591,13.9114811 9.87928504,14.1817471 8.01092607,14.1817471 C6.18802688,14.1817471 3.11668794,13.9088469 1.20467912,13.7194549 C0.441107909,12.4855052 0,11.0284163 0,9.46761874 C0,6.08800366 2.06816958,3.19463518 5.00000001,2 C5.00000001,3.49115137 5.00000003,6.40778991 5,9.06975243 C4.99999997,12.7921359 6.3106503,14.0881415 7.68359375,14.1257113 C7.68359375,14.1265565 7.7963141,14.1265565 7.93157584,14.1265565 C8.20380793,14.1265565 8.31640625,14.1265565 8.31640625,14.1265565 C9.69108672,14.0885725 11.0035937,12.7927549 11.0035937,9.06975243 C11.0035937,6.40866161 11.0035937,3.49306153 11.0035937,2.00146535 Z M6,10.6346081 L6,11.11743 C6,12.3394249 6.89518764,13.3300475 8,13.3300475 C9.1045695,13.3300475 10,12.3393453 10,11.11743 L10,10.6346081 C10,9.41261317 8.68994141,9.51748406 8,9.51748406 C7.19885254,9.51748406 6,9.41269269 6,10.6346081 Z" id="Combined-Shape"></path>
        </g>
    </g>
</svg>