<?xml version="1.0" encoding="UTF-8"?>
<svg width="16px" height="16px" viewBox="0 0 16 16" version="1.1" xmlns="http://www.w3.org/2000/svg" xmlns:xlink="http://www.w3.org/1999/xlink">
    <!-- Generator: Sketch 41.2 (35397) - http://www.bohemiancoding.com/sketch -->
    <title>adn_on</title>
    <desc>Created with Sketch.</desc>
    <defs></defs>
    <g id="Symbols" stroke="none" stroke-width="1" fill="none" fill-rule="evenodd">
        <g id="adn_on" fill="#A01FF0">
            <g id="adn_logo_252-3" transform="translate(0.000000, 2.000000)">
                <path d="M1.46435847,11.9622918 C0.583389574,10.6730393 0.0677248677,9.11119269 0.0677248677,7.4281083 C0.0677248677,4.08225462 2.1055622,1.21551613 5.00000001,0.0169534894 C5.00000002,2.0050101 5.00000001,4.17832721 5,5.7588044 C4.99999996,9.51715166 6.34308811,10.7888528 7.73078131,10.7888528 C7.93362442,10.7888528 8.29857145,10.7888529 8.29857145,10.7888529 C9.67923751,10.7764431 11.0095238,9.49894296 11.0095238,5.75871325 C11.0095238,4.17376664 11.0095238,1.99262239 11.0095238,7.61658861e-07 C13.9258419,1.18831513 15.9830688,4.06637478 15.9830688,7.4281083 C15.9830688,9.11084986 15.4676141,10.6724031 14.5869735,11.961504 C13.0647815,11.8177328 10.7391944,11.6541869 8.03626509,11.6541869 C5.32839723,11.6541869 2.99239908,11.818331 1.46435847,11.9622918 Z M6.03597884,7.26096821 L6.03597884,7.74123548 C6.03597884,8.95676481 6.92643003,9.94214602 8.02539683,9.94214602 C9.12412204,9.94214602 10.0148148,8.9566857 10.0148148,7.74123548 L10.0148148,7.26096821 C10.0148148,6.04543889 8.71168775,6.14975491 8.02539683,6.14975491 C7.22848824,6.14975491 6.03597884,6.04551799 6.03597884,7.26096821 Z" id="adn_icon_new-21"></path>
            </g>
        </g>
    </g>
</svg>