<?xml version="1.0" encoding="UTF-8"?>
<svg width="16px" height="16px" viewBox="0 0 16 16" version="1.1" xmlns="http://www.w3.org/2000/svg" xmlns:xlink="http://www.w3.org/1999/xlink">
    <!-- Generator: Sketch 41.2 (35397) - http://www.bohemiancoding.com/sketch -->
    <title>adn_off</title>
    <desc>Created with Sketch.</desc>
    <defs></defs>
    <g id="Symbols" stroke="none" stroke-width="1" fill="none" fill-rule="evenodd">
        <g id="adn_off" fill="#999999">
            <path d="M1.46435847,13.9622918 C0.583389574,12.6730393 0.0677248677,11.1111927 0.0677248677,9.4281083 C0.0677248677,6.08225462 2.1055622,3.21551613 5.00000001,2.01695349 C5.00000002,4.0050101 5.00000001,6.17832721 5,7.7588044 C4.99999996,11.5171517 6.34308811,12.7888528 7.73078131,12.7888528 C7.93362442,12.7888528 8.29857145,12.7888529 8.29857145,12.7888529 C9.67923751,12.7764431 11.0095238,11.498943 11.0095238,7.75871325 C11.0095238,6.17376664 11.0095238,3.99262239 11.0095238,2.00000076 C13.9258419,3.18831513 15.9830688,6.06637478 15.9830688,9.4281083 C15.9830688,11.1108499 15.4676141,12.6724031 14.5869735,13.961504 C13.0647815,13.8177328 10.7391944,13.6541869 8.03626509,13.6541869 C5.32839723,13.6541869 2.99239908,13.818331 1.46435847,13.9622918 Z M6.03597884,9.26096821 L6.03597884,9.74123548 C6.03597884,10.9567648 6.92643003,11.942146 8.02539683,11.942146 C9.12412204,11.942146 10.0148148,10.9566857 10.0148148,9.74123548 L10.0148148,9.26096821 C10.0148148,8.04543889 8.71168775,8.14975491 8.02539683,8.14975491 C7.22848824,8.14975491 6.03597884,8.04551799 6.03597884,9.26096821 Z" id="adn_icon_new-21"></path>
        </g>
    </g>
</svg>