<?xml version="1.0" encoding="UTF-8" standalone="no"?>
<svg width="12px" height="12px" viewBox="0 0 12 12" version="1.1" xmlns="http://www.w3.org/2000/svg" xmlns:xlink="http://www.w3.org/1999/xlink">
    <!-- Generator: Sketch 40.3 (33839) - http://www.bohemiancoding.com/sketch -->
    <title>check</title>
    <desc>Created with Sketch.</desc>
    <defs></defs>
    <g id="Symbols" stroke="none" stroke-width="1" fill="none" fill-rule="evenodd">
        <g id="check" fill="#000000">
            <path d="M10.1201172,3.65234375 C10.1201172,4.03320503 9.94759287,4.40429507 9.60253906,4.765625 L9.54882812,4.81933594 L6.53125,7.99804688 C5.88997075,8.67187837 5.34391501,9.19270649 4.89306641,9.56054688 C4.4422178,9.92838726 4.12402437,10.1123047 3.93847656,10.1123047 C3.74316309,10.1123047 3.50065249,10.020346 3.2109375,9.83642578 C2.92122251,9.65250559 2.7340499,9.4628916 2.64941406,9.26757812 C2.57779912,9.10481689 2.51025422,8.75976826 2.44677734,8.23242188 C2.38330046,7.70507549 2.3515625,7.13379214 2.3515625,6.51855469 C2.3515625,6.18326655 2.49153506,5.87321106 2.77148438,5.58837891 C3.05143369,5.30354675 3.36067539,5.16113281 3.69921875,5.16113281 C4.02148599,5.16113281 4.21354136,5.45572622 4.27539062,6.04492188 C4.28190107,6.11328159 4.28678384,6.16373682 4.29003906,6.19628906 C4.34212266,6.64876528 4.40234341,6.96451733 4.47070312,7.14355469 C4.53906284,7.32259204 4.63183535,7.41210938 4.74902344,7.41210938 C4.79785181,7.41210938 4.88899673,7.35921277 5.02246094,7.25341797 C5.15592515,7.14762317 5.31542876,7.00358164 5.50097656,6.82128906 L8.6015625,3.75 C8.86198047,3.48958203 9.09472554,3.2926439 9.29980469,3.15917969 C9.50488384,3.02571548 9.67903574,2.95898438 9.82226562,2.95898438 C9.92968804,2.95898438 10.0061847,2.99967407 10.0517578,3.08105469 C10.097331,3.1624353 10.1201172,3.29915269 10.1201172,3.49121094 L10.1201172,3.65234375 Z" id="✔"></path>
        </g>
    </g>
</svg>