<svg display="none" width="0" height="0" version="1.1" xmlns="http://www.w3.org/2000/svg" xmlns:xlink="http://www.w3.org/1999/xlink">
<defs>
<symbol id="icon-lock" viewBox="0 0 1024 1024">
    <title>lock</title>
    <path class="path1" d="M749.715 511.999q22.857 0 38.857 16t16 38.857v329.143q0 22.857-16 38.857t-38.857 16h-548.571q-22.857 0-38.857-16t-16-38.857v-329.143q0-22.857 16-38.857t38.857-16h18.286v-182.857q0-105.714 75.143-180.857t180.857-75.143 180.857 75.143 75.143 180.857q0 14.857-10.857 25.714t-25.714 10.857h-36.571q-14.857 0-25.714-10.857t-10.857-25.714q0-60.571-42.857-103.429t-103.429-42.857-103.429 42.857-42.857 103.429v182.857h420.571z"></path>
</symbol>
<symbol id="icon-power" viewBox="0 0 1024 1024">
    <title>power</title>
    <path class="path1" d="M950.857 512q0 89.143-34.857 170.286t-93.714 140-140 93.714-170.286 34.857-170.286-34.857-140-93.714-93.714-140-34.857-170.286q0-104 46-196t129.429-154.286q24.571-18.286 54.571-14.286t47.714 28.571q18.286 24 14 54t-28.286 48.286q-56 42.286-86.571 103.429t-30.571 130.286q0 59.429 23.143 113.429t62.571 93.429 93.429 62.571 113.429 23.143 113.429-23.143 93.429-62.571 62.571-93.429 23.143-113.429q0-69.143-30.571-130.286t-86.571-103.429q-24-18.286-28.286-48.286t14-54q17.714-24.571 48-28.571t54.286 14.286q83.429 62.286 129.429 154.286t46 196zM585.143 73.143v365.714q0 29.714-21.714 51.429t-51.429 21.714-51.429-21.714-21.714-51.429v-365.714q0-29.714 21.714-51.429t51.429-21.714 51.429 21.714 21.714 51.429z"></path>
</symbol>
<symbol id="icon-eraser" viewBox="0 0 1023.8571428571428 1024">
    <title>eraser</title>
    <path class="path1" d="M478.036 783.673l178.286-203.755h-407.51l-178.286 203.755h407.51zM1015.546 212.204q7.958 18.041 5.041 37.939t-16.184 34.756l-475.429 543.348q-20.163 23.347-50.938 23.347h-407.51q-20.163 0-36.877-10.877t-25.204-28.919q-7.96-18.041-5.041-37.939t16.184-34.756l475.429-543.346q20.163-23.347 50.938-23.347h407.51q20.163 0 36.877 10.877t25.204 28.918z"></path>
</symbol>
<symbol id="icon-eyedropper" viewBox="0 0 1024 1024">
    <title>eyedropper</title>
    <path class="path1" d="M986.51 37.49c-49.988-49.986-131.032-49.986-181.020 0l-172.118 172.118-121.372-121.372-135.764 135.764 106.426 106.426-472.118 472.118c-8.048 8.048-11.468 18.958-10.3 29.456h-0.244v160c0 17.674 14.328 32 32 32h160c0 0 2.664 0 4 0 9.212 0 18.426-3.516 25.456-10.544l472.118-472.118 106.426 106.426 135.764-135.764-121.372-121.372 172.118-172.118c49.986-49.988 49.986-131.032 0-181.020zM173.090 960h-109.090v-109.090l469.574-469.572 109.088 109.088-469.572 469.574z"></path>
</symbol>
<symbol id="icon-stats" viewBox="0 0 1024 1024">
    <title>stats</title>
    <path class="path1" d="M0 832h1024v128h-1024zM128 576h128v192h-128zM320 320h128v448h-128zM512 512h128v256h-128zM704 128h128v640h-128z"></path>
</symbol>
<symbol id="icon-view" viewBox="0 0 1024 1024">
    <title>view</title>
    <path class="path1" d="M512 192c-223.318 0-416.882 130.042-512 320 95.118 189.958 288.682 320 512 320 223.312 0 416.876-130.042 512-320-95.116-189.958-288.688-320-512-320zM764.45 361.704c60.162 38.374 111.142 89.774 149.434 150.296-38.292 60.522-89.274 111.922-149.436 150.296-75.594 48.218-162.89 73.704-252.448 73.704-89.56 0-176.858-25.486-252.452-73.704-60.158-38.372-111.138-89.772-149.432-150.296 38.292-60.524 89.274-111.924 149.434-150.296 3.918-2.5 7.876-4.922 11.86-7.3-9.96 27.328-15.41 56.822-15.41 87.596 0 141.382 114.616 256 256 256 141.382 0 256-114.618 256-256 0-30.774-5.452-60.268-15.408-87.598 3.978 2.378 7.938 4.802 11.858 7.302v0zM512 416c0 53.020-42.98 96-96 96s-96-42.98-96-96 42.98-96 96-96 96 42.982 96 96z"></path>
</symbol>
<symbol id="icon-reload" viewBox="0 0 1024 1024">
    <title>reload</title>
    <path class="path1" d="M889.68 166.32c-93.608-102.216-228.154-166.32-377.68-166.32-282.77 0-512 229.23-512 512h96c0-229.75 186.25-416 416-416 123.020 0 233.542 53.418 309.696 138.306l-149.696 149.694h352v-352l-134.32 134.32z"></path>
    <path class="path2" d="M928 512c0 229.75-186.25 416-416 416-123.020 0-233.542-53.418-309.694-138.306l149.694-149.694h-352v352l134.32-134.32c93.608 102.216 228.154 166.32 377.68 166.32 282.77 0 512-229.23 512-512h-96z"></path>
</symbol>
<symbol id="icon-filter" viewBox="0 0 1024 1024">
    <title>filter</title>
    <path class="path1" d="M512 0c-282.77 0-512 71.634-512 160v96l384 384v320c0 35.346 57.306 64 128 64 70.692 0 128-28.654 128-64v-320l384-384v-96c0-88.366-229.23-160-512-160zM94.384 138.824c23.944-13.658 57.582-26.62 97.278-37.488 87.944-24.076 201.708-37.336 320.338-37.336 118.628 0 232.394 13.26 320.338 37.336 39.696 10.868 73.334 23.83 97.28 37.488 15.792 9.006 24.324 16.624 28.296 21.176-3.972 4.552-12.506 12.168-28.296 21.176-23.946 13.658-57.584 26.62-97.28 37.488-87.942 24.076-201.708 37.336-320.338 37.336s-232.394-13.26-320.338-37.336c-39.696-10.868-73.334-23.83-97.278-37.488-15.792-9.008-24.324-16.624-28.298-21.176 3.974-4.552 12.506-12.168 28.298-21.176z"></path>
</symbol>
</defs>
</svg>
