<svg display="none" width="0" height="0" version="1.1" xmlns="http://www.w3.org/2000/svg" xmlns:xlink="http://www.w3.org/1999/xlink">
<defs>
<symbol id="icon-save" viewBox="0 0 448 448">
    <title>save</title>
    <path class="path1" d="M128 384h192v-96h-192v96zM352 384h32v-224q0-3.5-2.5-9.625t-5-8.625l-70.25-70.25q-2.5-2.5-8.5-5t-9.75-2.5v104q0 10-7 17t-17 7h-144q-10 0-17-7t-7-17v-104h-32v320h32v-104q0-10 7-17t17-7h208q10 0 17 7t7 17v104zM256 152v-80q0-3.25-2.375-5.625t-5.625-2.375h-48q-3.25 0-5.625 2.375t-2.375 5.625v80q0 3.25 2.375 5.625t5.625 2.375h48q3.25 0 5.625-2.375t2.375-5.625zM416 160v232q0 10-7 17t-17 7h-336q-10 0-17-7t-7-17v-336q0-10 7-17t17-7h232q10 0 22 5t19 12l70 70q7 7 12 19t5 22z"></path>
</symbol>
<symbol id="icon-trash" viewBox="0 0 416 448">
    <title>trash</title>
    <path class="path1" d="M159.999 184v144q0 3.5-2.25 5.75t-5.75 2.25h-16q-3.5 0-5.75-2.25t-2.25-5.75v-144q0-3.5 2.25-5.75t5.75-2.25h16q3.5 0 5.75 2.25t2.25 5.75zM224 184v144q0 3.5-2.25 5.75t-5.75 2.25h-16q-3.5 0-5.75-2.25t-2.25-5.75v-144q0-3.5 2.25-5.75t5.75-2.25h16q3.5 0 5.75 2.25t2.25 5.75zM288 184v144q0 3.5-2.25 5.75t-5.75 2.25h-16q-3.5 0-5.75-2.25t-2.25-5.75v-144q0-3.5 2.25-5.75t5.75-2.25h16q3.5 0 5.75 2.25t2.25 5.75zM320 365v-237h-224v237q0 5.5 1.75 10.125t3.625 6.75 2.625 2.125h208q0.75 0 2.625-2.125t3.625-6.75 1.75-10.125zM152 96h112l-12-29.25q-1.75-2.25-4.25-2.75h-79.25q-2.5 0.5-4.25 2.75zM383.999 104v16q0 3.5-2.25 5.75t-5.75 2.25h-24v237q0 20.75-11.75 35.875t-28.25 15.125h-208q-16.5 0-28.25-14.625t-11.75-35.375v-238h-24q-3.5 0-5.75-2.25t-2.25-5.75v-16q0-3.5 2.25-5.75t5.75-2.25h77.25l17.5-41.75q3.75-9.25 13.5-15.75t19.75-6.5h80q10 0 19.75 6.5t13.5 15.75l17.5 41.75h77.25q3.5 0 5.75 2.25t2.25 5.75z"></path>
</symbol>
<symbol id="icon-power" viewBox="0 0 1024 1024">
    <title>power</title>
    <path class="path1" d="M950.857 512q0 89.143-34.857 170.286t-93.714 140-140 93.714-170.286 34.857-170.286-34.857-140-93.714-93.714-140-34.857-170.286q0-104 46-196t129.429-154.286q24.571-18.286 54.571-14.286t47.714 28.571q18.286 24 14 54t-28.286 48.286q-56 42.286-86.571 103.429t-30.571 130.286q0 59.429 23.143 113.429t62.571 93.429 93.429 62.571 113.429 23.143 113.429-23.143 93.429-62.571 62.571-93.429 23.143-113.429q0-69.143-30.571-130.286t-86.571-103.429q-24-18.286-28.286-48.286t14-54q17.714-24.571 48-28.571t54.286 14.286q83.429 62.286 129.429 154.286t46 196zM585.143 73.143v365.714q0 29.714-21.714 51.429t-51.429 21.714-51.429-21.714-21.714-51.429v-365.714q0-29.714 21.714-51.429t51.429-21.714 51.429 21.714 21.714 51.429z"></path>
</symbol>
<symbol id="icon-eraser" viewBox="0 0 1023.8571428571428 1024">
    <title>eraser</title>
    <path class="path1" d="M478.036 783.673l178.286-203.755h-407.51l-178.286 203.755h407.51zM1015.546 212.204q7.958 18.041 5.041 37.939t-16.184 34.756l-475.429 543.348q-20.163 23.347-50.938 23.347h-407.51q-20.163 0-36.877-10.877t-25.204-28.919q-7.96-18.041-5.041-37.939t16.184-34.756l475.429-543.346q20.163-23.347 50.938-23.347h407.51q20.163 0 36.877 10.877t25.204 28.918z"></path>
</symbol>
<symbol id="icon-preferences" viewBox="0 0 1024 1024">
    <title>preferences</title>
    <path class="path1" d="M872.186 602.859c1.939-15.512 3.394-31.269 3.394-47.265s-1.455-31.753-3.394-47.265l102.529-80.23c9.211-7.271 11.876-20.36 5.817-31.026l-96.954-167.974c-6.059-10.422-18.664-14.785-29.572-10.422l-120.709 48.719c-24.965-19.149-52.355-35.389-81.927-47.751l-18.179-128.466c-2.181-11.393-12.12-20.36-24.239-20.36h-193.91c-12.12 0-22.057 8.968-23.996 20.36l-18.179 128.466c-29.572 12.362-56.96 28.359-81.927 47.751l-120.709-48.719c-10.907-4.122-23.512 0-29.572 10.422l-96.954 167.974c-6.059 10.422-3.394 23.512 5.817 31.026l102.287 80.23c-1.939 15.512-3.394 31.269-3.394 47.265s1.455 31.753 3.394 47.265l-102.287 80.23c-9.211 7.271-11.876 20.36-5.817 31.026l96.954 167.974c6.059 10.422 18.664 14.785 29.572 10.422l120.709-48.719c24.965 19.149 52.355 35.389 81.927 47.751l18.179 128.466c1.939 11.393 11.876 20.36 23.996 20.36h193.91c12.12 0 22.057-8.968 23.996-20.36l18.179-128.466c29.572-12.362 56.96-28.359 81.927-47.751l120.709 48.719c10.907 4.122 23.512 0 29.572-10.422l96.954-167.974c6.059-10.422 3.394-23.512-5.817-31.026l-102.287-80.23zM512 725.264c-93.805 0-169.671-75.866-169.671-169.671s75.866-169.671 169.671-169.671 169.671 75.866 169.671 169.671-75.866 169.671-169.671 169.671z"></path>
</symbol>
<symbol id="icon-eyedropper" viewBox="0 0 1024 1024">
    <title>eyedropper</title>
    <path class="path1" d="M986.51 37.49c-49.988-49.986-131.032-49.986-181.020 0l-172.118 172.118-121.372-121.372-135.764 135.764 106.426 106.426-472.118 472.118c-8.048 8.048-11.468 18.958-10.3 29.456h-0.244v160c0 17.674 14.328 32 32 32h160c0 0 2.664 0 4 0 9.212 0 18.426-3.516 25.456-10.544l472.118-472.118 106.426 106.426 135.764-135.764-121.372-121.372 172.118-172.118c49.986-49.988 49.986-131.032 0-181.020zM173.090 960h-109.090v-109.090l469.574-469.572 109.088 109.088-469.572 469.574z"></path>
</symbol>
<symbol id="icon-secure" viewBox="0 0 1024 1024">
    <title>secure</title>
    <path class="path1" d="M912 448h-16v-192c0-105.87-86.13-192-192-192h-128c-105.87 0-192 86.13-192 192v192h-16c-26.4 0-48 21.6-48 48v480c0 26.4 21.6 48 48 48h544c26.4 0 48-21.6 48-48v-480c0-26.4-21.6-48-48-48zM512 256c0-35.29 28.71-64 64-64h128c35.29 0 64 28.71 64 64v192h-256v-192z"></path>
</symbol>
<symbol id="icon-insecure" viewBox="0 0 1024 1024">
    <title>insecure</title>
    <path class="path1" d="M192 64c-105.87 0-192 86.13-192 192v192h128v-192c0-35.29 28.71-64 64-64h128c35.29 0 64 28.71 64 64v192h-16c-26.4 0-48 21.6-48 48v480c0 26.4 21.6 48 48 48h544c26.4 0 48-21.6 48-48v-480c0-26.4-21.6-48-48-48h-400v-192c0-105.87-86.13-192-192-192h-128z"></path>
</symbol>
<symbol id="icon-stats" viewBox="0 0 1024 1024">
    <title>stats</title>
    <path class="path1" d="M0 832h1024v128h-1024zM128 576h128v192h-128zM320 320h128v448h-128zM512 512h128v256h-128zM704 128h128v640h-128z"></path>
</symbol>
<symbol id="icon-reload" viewBox="0 0 1024 1024">
    <title>reload</title>
    <path class="path1" d="M889.68 166.32c-93.608-102.216-228.154-166.32-377.68-166.32-282.77 0-512 229.23-512 512h96c0-229.75 186.25-416 416-416 123.020 0 233.542 53.418 309.696 138.306l-149.696 149.694h352v-352l-134.32 134.32z"></path>
    <path class="path2" d="M928 512c0 229.75-186.25 416-416 416-123.020 0-233.542-53.418-309.694-138.306l149.694-149.694h-352v352l134.32-134.32c93.608 102.216 228.154 166.32 377.68 166.32 282.77 0 512-229.23 512-512h-96z"></path>
</symbol>
<symbol id="icon-view" viewBox="0 0 1024 1024">
    <title>view</title>
    <path class="path1" d="M320 768v-768h-128v768h-160l224 224 224-224h-160z"></path>
    <path class="path2" d="M448 0h576v128h-576v-128z"></path>
    <path class="path3" d="M448 192h448v128h-448v-128z"></path>
    <path class="path4" d="M448 384h320v128h-320v-128z"></path>
    <path class="path5" d="M448 576h192v128h-192v-128z"></path>
</symbol>
<symbol id="icon-filter" viewBox="0 0 1024 1024">
    <title>filter</title>
    <path class="path1" d="M512 0c-282.77 0-512 71.634-512 160v96l384 384v320c0 35.346 57.306 64 128 64 70.692 0 128-28.654 128-64v-320l384-384v-96c0-88.366-229.23-160-512-160zM94.384 138.824c23.944-13.658 57.582-26.62 97.278-37.488 87.944-24.076 201.708-37.336 320.338-37.336 118.628 0 232.394 13.26 320.338 37.336 39.696 10.868 73.334 23.83 97.28 37.488 15.792 9.006 24.324 16.624 28.296 21.176-3.972 4.552-12.506 12.168-28.296 21.176-23.946 13.658-57.584 26.62-97.28 37.488-87.942 24.076-201.708 37.336-320.338 37.336s-232.394-13.26-320.338-37.336c-39.696-10.868-73.334-23.83-97.278-37.488-15.792-9.008-24.324-16.624-28.298-21.176 3.974-4.552 12.506-12.168 28.298-21.176z"></path>
</symbol>
</defs>
</svg>
