<!--

    The SVG definitions were imported piecemeal from:
        - https://design.firefox.com/icons/viewer/#
        
    License:
    - [to be determined]

-->

<svg xmlns="http://www.w3.org/2000/svg" xmlns:xlink="http://www.w3.org/1999/xlink" style="display: none;">
    <defs>
    <symbol id="ph-popups" viewBox="0 0 20 20"><path d="m 3.146,1.8546316 a 0.5006316,0.5006316 0 0 0 0.708,-0.708 l -1,-1 a 0.5006316,0.5006316 0 0 0 -0.708,0.708 z m -0.836,2.106 a 0.406,0.406 0 0 0 0.19,0.04 0.5,0.5 0 0 0 0.35,-0.851 0.493,0.493 0 0 0 -0.54,-0.109 0.361,0.361 0 0 0 -0.16,0.109 0.485,0.485 0 0 0 0,0.7 0.372,0.372 0 0 0 0.16,0.111 z m 3,-3 a 0.406,0.406 0 0 0 0.19,0.04 0.513,0.513 0 0 0 0.5,-0.5 0.473,0.473 0 0 0 -0.15,-0.351 0.5,0.5 0 0 0 -0.7,0 0.485,0.485 0 0 0 0,0.7 0.372,0.372 0 0 0 0.16,0.111 z m 13.19,1.04 a 0.5,0.5 0 0 0 0.354,-0.146 l 1,-1 a 0.5006316,0.5006316 0 0 0 -0.708,-0.708 l -1,1 a 0.5,0.5 0 0 0 0.354,0.854 z m 1.35,1.149 a 0.361,0.361 0 0 0 -0.16,-0.109 0.5,0.5 0 0 0 -0.38,0 0.361,0.361 0 0 0 -0.16,0.109 0.485,0.485 0 0 0 0,0.7 0.372,0.372 0 0 0 0.16,0.11 0.471,0.471 0 0 0 0.38,0 0.372,0.372 0 0 0 0.16,-0.11 0.469,0.469 0 0 0 0.15,-0.349 0.43,0.43 0 0 0 -0.04,-0.19 0.358,0.358 0 0 0 -0.11,-0.161 z m -3.54,-2.189 a 0.406,0.406 0 0 0 0.19,0.04 0.469,0.469 0 0 0 0.35,-0.15 0.353,0.353 0 0 0 0.11,-0.161 0.469,0.469 0 0 0 0,-0.379 0.358,0.358 0 0 0 -0.11,-0.161 0.361,0.361 0 0 0 -0.16,-0.109 0.493,0.493 0 0 0 -0.54,0.109 0.358,0.358 0 0 0 -0.11,0.161 0.43,0.43 0 0 0 -0.04,0.19 0.469,0.469 0 0 0 0.15,0.35 0.372,0.372 0 0 0 0.16,0.11 z m 2.544,15.1860004 a 0.5006316,0.5006316 0 0 0 -0.708,0.708 l 1,1 a 0.5006316,0.5006316 0 0 0 0.708,-0.708 z m 0.3,-2 a 0.473,0.473 0 0 0 -0.154,0.354 0.4,0.4 0 0 0 0.04,0.189 0.353,0.353 0 0 0 0.11,0.161 0.469,0.469 0 0 0 0.35,0.15 0.406,0.406 0 0 0 0.19,-0.04 0.372,0.372 0 0 0 0.16,-0.11 0.454,0.454 0 0 0 0.15,-0.35 0.473,0.473 0 0 0 -0.15,-0.351 0.5,0.5 0 0 0 -0.7,0 z m -3,3 a 0.473,0.473 0 0 0 -0.154,0.354 0.454,0.454 0 0 0 0.15,0.35 0.372,0.372 0 0 0 0.16,0.11 0.406,0.406 0 0 0 0.19,0.04 0.469,0.469 0 0 0 0.35,-0.15 0.353,0.353 0 0 0 0.11,-0.161 0.4,0.4 0 0 0 0.04,-0.189 0.473,0.473 0 0 0 -0.15,-0.351 0.5,0.5 0 0 0 -0.7,0 z M 18,5.0006316 a 3,3 0 0 0 -3,-3 H 7 a 3,3 0 0 0 -3,3 v 8.0000004 a 3,3 0 0 0 3,3 h 8 a 3,3 0 0 0 3,-3 z m -2,8.0000004 a 1,1 0 0 1 -1,1 H 7 a 1,1 0 0 1 -1,-1 V 7.0006316 H 16 Z M 16,6.0006316 H 6 v -1 a 1,1 0 0 1 1,-1 h 8 a 1,1 0 0 1 1,1 z M 11,18.000632 H 3 a 1,1 0 0 1 -1,-1 v -6 h 1 v -1 H 2 V 9.0006316 a 1,1 0 0 1 1,-1 v -2 a 3,3 0 0 0 -3,3 v 8.0000004 a 3,3 0 0 0 3,3 h 8 a 3,3 0 0 0 3,-3 h -2 a 1,1 0 0 1 -1,1 z"/></symbol>
    <symbol id="ph-readermode-text-size" viewBox="0 0 20 12.5"><path d="M 10.422,11.223 A 0.712,0.712 0 0 1 10.295,11.007 L 6.581,0 H 4.68 L 0.933,11.309 0,11.447 V 12.5 H 3.594 V 11.447 L 2.655,11.325 A 0.3,0.3 0 0 1 2.468,11.211 0.214,0.214 0 0 1 2.419,10.974 L 3.341,8.387 h 3.575 l 0.906,2.652 a 0.18,0.18 0 0 1 -0.016,0.18 0.217,0.217 0 0 1 -0.139,0.106 L 6.679,11.447 V 12.5 h 4.62 V 11.447 L 10.663,11.325 A 0.512,0.512 0 0 1 10.422,11.223 Z M 3.659,7.399 5.063,2.57 6.5,7.399 Z M 19.27,11.464 A 0.406,0.406 0 0 1 19.009,11.337 0.368,0.368 0 0 1 18.902,11.072 V 6.779 A 3.838,3.838 0 0 0 18.67,5.318 1.957,1.957 0 0 0 18.01,4.457 2.48,2.48 0 0 0 16.987,4.044 7.582,7.582 0 0 0 15.67,3.938 a 6.505,6.505 0 0 0 -1.325,0.139 5.2,5.2 0 0 0 -1.2,0.4 2.732,2.732 0 0 0 -0.864,0.624 1.215,1.215 0 0 0 -0.331,0.833 0.532,0.532 0 0 0 0.119,0.383 0.665,0.665 0 0 0 0.257,0.172 0.916,0.916 0 0 0 0.375,0.041 h 1.723 V 4.942 A 4.429,4.429 0 0 1 14.611,4.91 2.045,2.045 0 0 1 14.836,4.885 c 0.09,0 0.192,-0.008 0.306,-0.008 a 1.849,1.849 0 0 1 0.808,0.151 1.247,1.247 0 0 1 0.71,0.89 2.164,2.164 0 0 1 0.049,0.51 c 0,0.076 -0.008,0.152 -0.008,0.228 0,0.076 -0.008,0.139 -0.008,0.221 v 0.2 q -1.152,0.252 -1.976,0.489 a 12.973,12.973 0 0 0 -1.391,0.474 4.514,4.514 0 0 0 -0.91,0.485 2.143,2.143 0 0 0 -0.527,0.523 1.594,1.594 0 0 0 -0.245,0.592 3.739,3.739 0 0 0 -0.061,0.693 2.261,2.261 0 0 0 0.171,0.9 2.024,2.024 0 0 0 0.469,0.682 2.084,2.084 0 0 0 0.693,0.432 2.364,2.364 0 0 0 0.852,0.151 3.587,3.587 0 0 0 1.068,-0.159 6.441,6.441 0 0 0 1.835,-0.877 l 0.22,0.832 H 20 v -0.783 z m -2.588,-0.719 a 4.314,4.314 0 0 1 -0.5,0.188 5.909,5.909 0 0 1 -0.493,0.123 2.665,2.665 0 0 1 -0.543,0.057 1.173,1.173 0 0 1 -0.861,-0.363 1.166,1.166 0 0 1 -0.245,-0.392 1.357,1.357 0 0 1 -0.086,-0.486 1.632,1.632 0 0 1 0.123,-0.657 1.215,1.215 0 0 1 0.432,-0.5 3.151,3.151 0 0 1 0.837,-0.392 12.429,12.429 0 0 1 1.334,-0.334 z"/></symbol>
    </defs>
</svg>
