<svg xmlns="http://www.w3.org/2000/svg" width="732" height="1740.34">
  <defs>
    <marker id="e" orient="auto" overflow="visible">
      <path fill-rule="evenodd" stroke="#000" stroke-width=".4pt" d="M1.96 0c0 1.104-.896 2-2 2s-2-.896-2-2 .896-2 2-2 2 .896 2 2z"/>
    </marker>
    <marker id="d" orient="auto" overflow="visible">
      <path fill-rule="evenodd" stroke="#000" stroke-width=".4pt" d="M2.308 0l-3.46 2v-4l3.46 2z"/>
    </marker>
    <marker id="g" orient="auto" overflow="visible">
      <path fill-rule="evenodd" stroke="#000" stroke-width=".4pt" d="M2.308 0l-3.46 2v-4l3.46 2z"/>
    </marker>
    <marker id="a" orient="auto" overflow="visible">
      <path fill="#0a0" fill-rule="evenodd" stroke="#0a0" stroke-width=".4pt" d="M1.96 0c0 1.104-.896 2-2 2s-2-.896-2-2 .896-2 2-2 2 .896 2 2z"/>
    </marker>
    <marker id="b" orient="auto" overflow="visible">
      <path fill="#0a0" fill-rule="evenodd" stroke="#0a0" stroke-width=".4pt" d="M2.308 0l-3.46 2v-4l3.46 2z"/>
    </marker>
    <marker id="k" orient="auto" overflow="visible">
      <path fill="#0a0" fill-rule="evenodd" stroke="#0a0" stroke-width=".4pt" d="M2.308 0l-3.46 2v-4l3.46 2z"/>
    </marker>
    <marker id="o" orient="auto" overflow="visible">
      <path fill="#0a0" fill-rule="evenodd" stroke="#0a0" stroke-width=".4pt" d="M2.308 0l-3.46 2v-4l3.46 2z"/>
    </marker>
    <marker id="f" orient="auto" overflow="visible">
      <path fill="#0a0" fill-rule="evenodd" stroke="#0a0" stroke-width=".4pt" d="M2.308 0l-3.46 2v-4l3.46 2z"/>
    </marker>
    <marker id="c" orient="auto" overflow="visible">
      <path fill="#0a0" fill-rule="evenodd" stroke="#0a0" stroke-width=".4pt" d="M2.308 0l-3.46 2v-4l3.46 2z"/>
    </marker>
    <marker id="m" orient="auto" overflow="visible">
      <path fill="#c00" fill-rule="evenodd" stroke="#c00" stroke-width=".4pt" d="M1.96 0c0 1.104-.896 2-2 2s-2-.896-2-2 .896-2 2-2 2 .896 2 2z"/>
    </marker>
    <marker id="n" orient="auto" overflow="visible">
      <path fill="#c00" fill-rule="evenodd" stroke="#c00" stroke-width=".4pt" d="M1.96 0c0 1.104-.896 2-2 2s-2-.896-2-2 .896-2 2-2 2 .896 2 2z"/>
    </marker>
    <marker id="p" orient="auto" overflow="visible">
      <path fill="#c00" fill-rule="evenodd" stroke="#c00" stroke-width=".4pt" d="M1.96 0c0 1.104-.896 2-2 2s-2-.896-2-2 .896-2 2-2 2 .896 2 2z"/>
    </marker>
    <marker id="i" orient="auto" overflow="visible">
      <path fill="#b0b0b0" fill-rule="evenodd" stroke="#b0b0b0" stroke-width=".2pt" d="M0-1.414L-1.414 0 0 1.414 1.414 0 0-1.414z"/>
    </marker>
    <marker id="j" orient="auto" overflow="visible">
      <path fill="#b0b0b0" fill-rule="evenodd" stroke="#b0b0b0" stroke-width=".2pt" d="M0-1.414L-1.414 0 0 1.414 1.414 0 0-1.414z"/>
    </marker>
    <marker id="h" orient="auto" overflow="visible">
      <path fill="#b0b0b0" fill-rule="evenodd" stroke="#b0b0b0" stroke-width=".2pt" d="M0-1.414L-1.414 0 0 1.414 1.414 0 0-1.414z"/>
    </marker>
    <marker id="l" orient="auto" overflow="visible">
      <path fill-rule="evenodd" stroke="#000" stroke-width=".4pt" d="M2.308 0l-3.46 2v-4l3.46 2z"/>
    </marker>
  </defs>
  <g transform="translate(-39 917.638)">
    <rect width="280" height="320" x="240" y="-897.638" fill="#b3b3b3" rx=".5" ry=".5"/>
    <rect width="240" height="40" x="260" y="-877.638" fill="#fff" rx=".5" ry=".5"/>
    <rect width="120" height="80" x="260" y="-797.638" fill="#ccc" rx=".5" ry=".5"/>
    <rect width="100" height="80" x="400" y="-797.638" fill="#ccc" rx=".5" ry=".5"/>
    <rect width="160" height="100" x="340" y="-697.638" fill="#ccc" rx=".5" ry=".5"/>
    <rect width="60" height="100" x="260" y="-697.638" fill="#ccc" stroke="#a0a0a0" rx=".5" ry=".5"/>
    <rect width="280" height="120" x="240" y="-497.638" fill="#fea" rx=".5" ry=".5"/>
    <rect width="280" height="120" x="240" y="102.362" fill="#fea" rx=".5" ry=".5"/>
    <path fill="none" stroke="#b0b0b0" stroke-width="4" d="M280-857.638H100v1400"/>
    <path fill="none" stroke="#0a0" stroke-width="4" d="M710-507.638v1170H430" marker-start="url(#a)" marker-end="url(#b)"/>
    <text x="380" y="-447.638" style="text-align:center;line-height:125%" font-size="24" letter-spacing="0" word-spacing="0" text-anchor="middle" font-family="Sans">
      <tspan x="380" y="-447.638">context</tspan><tspan x="380" y="-417.638">whitelisted?</tspan>
    </text>
    <text x="390" y="152.362" style="text-align:center;line-height:125%" font-size="24" letter-spacing="0" word-spacing="0" text-anchor="middle" font-family="Sans">
      <tspan x="390" y="152.362">local dynamic</tspan><tspan x="390" y="182.362">filtering rule?</tspan>
    </text>
    <path fill="none" stroke="#0a0" stroke-width="4" d="M520 142.362h180" opacity=".96" marker-end="url(#c)"/>
    <text x="550" y="132.362" style="text-align:center;line-height:125%" font-size="16" letter-spacing="0" word-spacing="0" text-anchor="middle" font-family="Sans">
      <tspan x="550" y="132.362">allow</tspan>
    </text>
    <path fill="none" stroke="#000" stroke-width="4" d="M420-607.638v100" marker-end="url(#d)"/>
    <text x="440.898" y="-357.864" style="text-align:center;line-height:125%" font-size="16" letter-spacing="0" word-spacing="0" text-anchor="middle" font-family="Sans">
      <tspan x="440.898" y="-357.864">no</tspan>
    </text>
    <text x="548.484" y="201.323" style="text-align:center;line-height:125%" font-size="16" letter-spacing="0" word-spacing="0" text-anchor="middle" font-family="Sans">
      <tspan x="548.484" y="201.323">noop</tspan>
    </text>
    <path fill="none" stroke="#000" stroke-width="4" d="M610-507.638v970H430" marker-start="url(#e)" marker-end="url(#d)"/>
    <text x="440" y="242.362" style="text-align:center;line-height:125%" font-size="16" letter-spacing="0" word-spacing="0" text-anchor="middle" font-family="Sans">
      <tspan x="440" y="242.362">no</tspan>
    </text>
    <rect width="280" height="120" x="240" y="302.362" fill="#fea" rx=".5" ry=".5"/>
    <path fill="none" stroke="#000" stroke-width="4" d="M420 222.362v70" marker-end="url(#d)"/>
    <text x="390" y="352.362" style="text-align:center;line-height:125%" font-size="24" letter-spacing="0" word-spacing="0" text-anchor="middle" font-family="Sans">
      <tspan x="390" y="352.362">global dynamic</tspan><tspan x="390" y="382.362">filtering rule?</tspan>
    </text>
    <path fill="none" stroke="#0a0" stroke-width="4" d="M519.898 342.136l180.102.226" marker-end="url(#f)"/>
    <text x="550" y="332.362" style="text-align:center;line-height:125%" font-size="16" letter-spacing="0" word-spacing="0" text-anchor="middle" font-family="Sans">
      <tspan x="550" y="332.362">allow</tspan>
    </text>
    <text x="548.484" y="401.323" style="text-align:center;line-height:125%" font-size="16" letter-spacing="0" word-spacing="0" text-anchor="middle" font-family="Sans">
      <tspan x="548.484" y="401.323">noop</tspan>
    </text>
    <path fill="none" stroke="#000" stroke-width="4" d="M520 382.362h80" marker-end="url(#g)"/>
    <text x="440" y="442.362" style="text-align:center;line-height:125%" font-size="16" letter-spacing="0" word-spacing="0" text-anchor="middle" font-family="Sans">
      <tspan x="440" y="442.362">no</tspan>
    </text>
    <rect width="280" height="120" x="240" y="502.362" fill="#fea" rx=".5" ry=".5"/>
    <path fill="none" stroke="#000" stroke-width="4" d="M420 422.362v70" marker-end="url(#d)"/>
    <text x="380" y="562.362" style="text-align:center;line-height:125%" font-size="24" letter-spacing="0" word-spacing="0" text-anchor="middle" font-family="Sans">
      <tspan x="380" y="562.362">static filtering?</tspan>
    </text>
    <path fill="none" stroke="#b0b0b0" stroke-width="4" d="M100 142.362h140" marker-end="url(#h)"/>
    <path fill="none" stroke="#b0b0b0" stroke-width="4" d="M100 490h140" transform="translate(0 -947.638)" marker-end="url(#i)"/>
    <rect width="280" height="120" x="240" y="-97.638" fill="#fea" rx=".5" ry=".5"/>
    <text x="380" y="-47.638" style="text-align:center;line-height:125%" font-size="24" letter-spacing="0" word-spacing="0" text-anchor="middle" font-family="Sans">
      <tspan x="380" y="-47.638" style="-inkscape-font-specification:Sans Italic" font-style="italic">advanced user</tspan><tspan x="380" y="-17.638">mode?</tspan>
    </text>
    <text x="440" y="42.362" style="text-align:center;line-height:125%" font-size="16" letter-spacing="0" word-spacing="0" text-anchor="middle" font-family="Sans">
      <tspan x="440" y="42.362">yes</tspan>
    </text>
    <path fill="none" stroke="#000" stroke-width="4" d="M420 22.362v70" marker-end="url(#d)"/>
    <path fill="none" stroke="#000" stroke-width="4" d="M520 182.362h80" opacity=".96" marker-end="url(#d)"/>
    <text x="538.516" y="1.323" style="text-align:center;line-height:125%" font-size="16" letter-spacing="0" word-spacing="0" text-anchor="middle" font-family="Sans">
      <tspan x="538.516" y="1.323">no</tspan>
    </text>
    <path fill="none" stroke="#000" stroke-width="4" d="M520-17.638h80" marker-end="url(#g)"/>
    <path fill="none" stroke="#b0b0b0" stroke-width="4" d="M100 542.362h140" marker-end="url(#j)"/>
    <path fill="none" stroke="#0a0" stroke-width="4" d="M520 490h180" transform="translate(0 -947.638)" marker-end="url(#k)"/>
    <path fill="none" stroke="#000" stroke-width="4" d="M420 622.362v150" marker-end="url(#l)"/>
    <text x="460" y="642.362" style="text-align:center;line-height:125%" font-size="16" letter-spacing="0" word-spacing="0" text-anchor="middle" font-family="Sans">
      <tspan x="460" y="642.362">no filter</tspan>
    </text>
    <text x="180" y="-867.638" style="text-align:center;line-height:125%" font-size="24" letter-spacing="0" word-spacing="0" text-anchor="middle" font-family="Sans">
      <tspan x="180" y="-867.638">context</tspan>
    </text>
    <text x="419.316" y="-657.978" fill="#666" style="text-align:center;line-height:125%" font-size="24" letter-spacing="0" word-spacing="0" text-anchor="middle" font-family="Sans">
      <tspan x="419.316" y="-657.978">URL of</tspan><tspan x="419.316" y="-627.978">resource</tspan>
    </text>
    <text x="380" y="-847.638" fill="#666" style="text-align:center;line-height:125%" font-size="24" letter-spacing="0" word-spacing="0" text-anchor="middle" font-family="Sans">
      <tspan x="380" y="-847.638">URL of page</tspan>
    </text>
    <path fill="none" stroke="#c00" stroke-width="4" d="M340 222.362v40" marker-end="url(#m)"/>
    <text x="310" y="242.362" style="text-align:center;line-height:125%" font-size="16" letter-spacing="0" word-spacing="0" text-anchor="middle" font-family="Sans">
      <tspan x="310" y="242.362">block</tspan>
    </text>
    <path fill="none" stroke="#c00" stroke-width="4" d="M340 422.362v40" marker-end="url(#n)"/>
    <text x="310" y="442.362" style="text-align:center;line-height:125%" font-size="16" letter-spacing="0" word-spacing="0" text-anchor="middle" font-family="Sans">
      <tspan x="310" y="442.362">block</tspan>
    </text>
    <path fill="none" stroke="#0a0" stroke-width="4" d="M520 542.362h180" marker-end="url(#o)"/>
    <text x="590" y="532.362" style="text-align:center;line-height:125%" font-size="16" letter-spacing="0" word-spacing="0" text-anchor="middle" font-family="Sans">
      <tspan x="590" y="532.362">exception filter</tspan>
    </text>
    <path fill="none" stroke="#c00" stroke-width="4" d="M340 622.362v40" marker-end="url(#p)"/>
    <text x="290" y="642.362" style="text-align:center;line-height:125%" font-size="16" letter-spacing="0" word-spacing="0" text-anchor="middle" font-family="Sans">
      <tspan x="290" y="642.362">block filter</tspan>
    </text>
    <text x="420" y="802.362" style="text-align:center;line-height:125%" font-size="24" letter-spacing="0" word-spacing="0" text-anchor="middle" font-family="Sans">
      <tspan x="420" y="802.362">remote server</tspan>
    </text>
    <text x="540" y="-467.638" style="text-align:center;line-height:125%" font-size="16" letter-spacing="0" word-spacing="0" text-anchor="middle" font-family="Sans">
      <tspan x="540" y="-467.638">yes</tspan>
    </text>
    <path fill="#ccc" stroke="gray" stroke-width="2" d="M750 702.362H60m690-1240H60" stroke-dasharray="8 8"/>
    <text x="620" y="-867.638" style="text-align:center;line-height:125%" font-size="24" letter-spacing="0" word-spacing="0" text-anchor="middle" font-family="Sans">
      <tspan x="620" y="-867.638">your browser</tspan>
    </text>
    <rect width="280" height="120" x="240" y="-297.638" fill="#fea" rx=".5" ry=".5"/>
    <path fill="none" stroke="#000" stroke-width="4" d="M420-377.638v70" marker-end="url(#d)"/>
    <text x="380" y="-247.638" style="text-align:center;line-height:125%" font-size="24" letter-spacing="0" word-spacing="0" text-anchor="middle" font-family="Sans">
      <tspan x="380" y="-247.638">url filtering rule?</tspan>
    </text>
    <path fill="none" stroke="#0a0" stroke-width="4" d="M520-257.638h180" opacity=".96" marker-end="url(#c)"/>
    <text x="550" y="-267.638" style="text-align:center;line-height:125%" font-size="16" letter-spacing="0" word-spacing="0" text-anchor="middle" font-family="Sans">
      <tspan x="550" y="-267.638">allow</tspan>
    </text>
    <path fill="none" stroke="#c00" stroke-width="4" d="M340-177.638v40" marker-end="url(#m)"/>
    <text x="310" y="-157.638" style="text-align:center;line-height:125%" font-size="16" letter-spacing="0" word-spacing="0" text-anchor="middle" font-family="Sans">
      <tspan x="310" y="-157.638">block</tspan>
    </text>
    <text x="440.898" y="-157.864" style="text-align:center;line-height:125%" font-size="16" letter-spacing="0" word-spacing="0" text-anchor="middle" font-family="Sans">
      <tspan x="440.898" y="-157.864">no</tspan>
    </text>
    <path fill="none" stroke="#000" stroke-width="4" d="M420-177.638v70" marker-end="url(#d)"/>
    <path fill="none" stroke="#b0b0b0" stroke-width="4" d="M100-257.638h140" marker-end="url(#h)"/>
    <text x="548.484" y="-198.677" style="text-align:center;line-height:125%" font-size="16" letter-spacing="0" word-spacing="0" text-anchor="middle" font-family="Sans">
      <tspan x="548.484" y="-198.677">noop</tspan>
    </text>
    <path fill="none" stroke="#000" stroke-width="4" d="M520-217.638h80" opacity=".96" marker-end="url(#d)"/>
  </g>
</svg>
