<svg xmlns="http://www.w3.org/2000/svg" width="128" height="128">
  <path fill="maroon" stroke="#fff" stroke-width="1.602" d="M447.834 669.1c-80.63-57.032-80.63-57.032-80.63-199.61 34.555 0 46.074 0 80.63-28.515m0 228.124c80.63-57.034 80.63-57.034 80.63-199.61-34.555 0-46.074 0-80.63-28.517" transform="matrix(-.69452 0 0 .5611 375.03 -247.43)" stroke-linejoin="round" stroke-linecap="round"/>
  <g stroke="#fff" transform="translate(-17.873 -17.325)" letter-spacing="0" word-spacing="0" font-family="Ubuntu">
    <ellipse cx="102.123" cy="81.325" fill="none" stroke-width="6" style="text-align:center;line-height:125%;-inkscape-font-specification:Ubuntu" rx="12" ry="12" transform="translate(-42.29 -31.108) scale(1.33333)" font-size="100.219" text-anchor="middle"/>
    <path fill="#fff" stroke="none" d="M81.725 81.472c0 11.02-4.99 16.03-15.97 16.03s-15.972-5.01-15.972-16.03V57.43h7.985v24.04c0 7.013 1 8.014 7.986 8.014 6.987 0 7.986-1 7.986-8.014V57.43h7.985z" style="-inkscape-font-specification:Ubuntu" transform="scale(1.0018 .9982)" font-size="73.201"/>
  </g>
</svg>
