<svg xmlns="http://www.w3.org/2000/svg" width="16" height="16">
  <g stroke="#fff" transform="matrix(.125 0 0 .12563 -2.234 -2.217)">
    <path fill="maroon" stroke-width="1.602" d="M447.834 669.1c-80.63-57.032-80.63-128.32-80.63-199.61 34.555 0 46.074 0 80.63-28.515m0 228.124c80.63-57.034 80.63-128.32 80.63-199.61-34.555 0-46.074 0-80.63-28.517" transform="matrix(-.69452 0 0 .5611 392.902 -230.104)" stroke-linecap="round" stroke-linejoin="round"/>
    <ellipse cx="102.123" cy="81.325" fill="none" stroke-width="6" rx="12" ry="12" transform="translate(-42.29 -31.108) scale(1.33333)" style="text-align:center;line-height:125%;-inkscape-font-specification:Ubuntu" font-size="100.219" letter-spacing="0" word-spacing="0" text-anchor="middle" font-family="Ubuntu"/>
    <path fill="#fff" stroke-width="1.2" d="M81.126 94.996c-1.56.39-3.635.806-6.222 1.245-2.537.44-5.49.66-8.857.66-2.928 0-5.393-.413-7.394-1.243-2-.878-3.61-2.098-4.83-3.66-1.22-1.56-2.1-3.39-2.636-5.49-.537-2.147-.805-4.514-.805-7.1V58.03h6.807v19.91c0 4.637.73 7.955 2.194 9.956 1.464 2 3.928 3 7.393 3 .73 0 1.487-.023 2.268-.072.78-.05 1.513-.098 2.196-.146.684-.098 1.294-.17 1.83-.22.587-.098 1-.195 1.246-.293V58.03h6.806v36.966" style="-inkscape-font-specification:Ubuntu" font-family="Ubuntu" transform="scale(1.0018 .9982)" font-size="73.201" letter-spacing="0" word-spacing="0"/>
  </g>
</svg>
