<?xml version="1.0" encoding="UTF-8" standalone="no"?>
<!-- Created with Inkscape (http://www.inkscape.org/) -->

<svg
   xmlns:dc="http://purl.org/dc/elements/1.1/"
   xmlns:cc="http://creativecommons.org/ns#"
   xmlns:rdf="http://www.w3.org/1999/02/22-rdf-syntax-ns#"
   xmlns:svg="http://www.w3.org/2000/svg"
   xmlns="http://www.w3.org/2000/svg"
   xmlns:xlink="http://www.w3.org/1999/xlink"
   xmlns:sodipodi="http://sodipodi.sourceforge.net/DTD/sodipodi-0.dtd"
   xmlns:inkscape="http://www.inkscape.org/namespaces/inkscape"
   width="744.09448819"
   height="1052.3622047"
   id="svg2"
   version="1.1"
   inkscape:version="0.48.5 r10040"
   sodipodi:docname="ublock.svg">
  <defs
     id="defs4">
    <inkscape:path-effect
       is_visible="true"
       id="path-effect3995"
       effect="spiro" />
  </defs>
  <sodipodi:namedview
     id="base"
     pagecolor="#000000"
     bordercolor="#666666"
     borderopacity="1.0"
     inkscape:pageopacity="0"
     inkscape:pageshadow="2"
     inkscape:zoom="0.9899495"
     inkscape:cx="376.71576"
     inkscape:cy="811.94917"
     inkscape:document-units="px"
     inkscape:current-layer="layer5"
     showgrid="false"
     inkscape:window-width="1680"
     inkscape:window-height="997"
     inkscape:window-x="1362"
     inkscape:window-y="-4"
     inkscape:window-maximized="1" />
  <metadata
     id="metadata7">
    <rdf:RDF>
      <cc:Work
         rdf:about="">
        <dc:format>image/svg+xml</dc:format>
        <dc:type
           rdf:resource="http://purl.org/dc/dcmitype/StillImage" />
        <dc:title></dc:title>
      </cc:Work>
    </rdf:RDF>
  </metadata>
  <g
     inkscape:label="polygon"
     inkscape:groupmode="layer"
     id="layer1"
     style="display:inline">
    <g
       id="g3003"
       transform="matrix(4.4946163,0,0,4.4784113,-1996.8254,-3025.1919)"
       inkscape:export-xdpi="20.430607"
       inkscape:export-ydpi="20.430607">
      <g
         style="display:inline"
         inkscape:label="polygon"
         id="layer2">
        <path
           inkscape:connector-curvature="0"
           id="path3788"
           d="m 450.58474,716.40132 0,51.00389 35.87406,36.2877 51.05503,0 35.91927,-36.3334 0,-51.68942 -35.03824,-35.44222 -52.20713,0 z"
           style="fill:#800000;fill-opacity:1;stroke:#ffffff;stroke-width:2.44291782;stroke-linecap:butt;stroke-linejoin:miter;stroke-miterlimit:4;stroke-opacity:1;stroke-dasharray:none;display:inline" />
      </g>
    </g>
  </g>
  <g
     inkscape:groupmode="layer"
     id="layer5"
     inkscape:label="text"
     style="display:inline">
    <g
       transform="matrix(0.97521805,0,0,1.0217146,0,0.07624875)"
       style="font-size:421.6192627px;font-style:normal;font-variant:normal;font-weight:bold;font-stretch:normal;line-height:125%;letter-spacing:0px;word-spacing:0px;fill:#ffffff;fill-opacity:1;stroke:none;font-family:Source Sans Pro;-inkscape-font-specification:Sans Bold"
       id="text3053"
       inkscape:export-xdpi="20.430607"
       inkscape:export-ydpi="20.430607">
      <path
         d="m 218.83305,472.64625 61.97723,0 0,-53.96657 -3.79453,-37.94524 c 3.59241,3.70669 7.58016,6.20123 11.96329,7.48364 4.38293,1.28241 9.10851,1.8797 14.17677,1.79186 9.372,-0.0176 18.03265,-2.61752 25.98195,-7.79986 7.94903,-5.18233 14.60701,-12.84164 19.97396,-22.97795 l 1.68646,0 4.63775,29.09136 50.59366,0 0,-209.12047 -61.97724,0 0,138.28934 c -5.93788,8.16005 -11.7702,14.08021 -17.49698,17.76048 -5.72704,3.68038 -12.40259,5.48981 -20.02665,5.42828 -8.81887,0.21964 -15.31875,-2.64382 -19.49965,-8.59038 -4.18109,-5.94645 -6.25402,-16.29355 -6.21879,-31.04132 l 0,-121.8464 -61.97723,0 z"
         id="path3058"
         inkscape:connector-curvature="0" />
    </g>
  </g>
</svg>
